# xmcd
#
# Track frame offsets:
#	150
#	24112
#	46175
#	68255
#	89110
#	112300
#	135475
#	157405
#	184605
#	201235
#	219915
#	239280
#
# Disc length: 3395 seconds
#
# Revision: 1
# Processed by: cddbd v1.5PL3 Copyright (c) Steve Scherf et al.
# Submitted via: audiograbber 1.83.01
#
DISCID=a40d410c
DTITLE=Various Artist - Heroes of Blues CD 2
DYEAR=1998
DGENRE=Blues
TTITLE0=Harvey Mandel - Ramblin´ Pony
TTITLE1=Robert Gordon - Prove It
TTITLE2=Clem Clempson - I´ve got News for You
TTITLE3=Paul Jones - Albatross
TTITLE4=Alvin Lee - Keep on rockin´
TTITLE5=Hadden Sayers - End of the Road
TTITLE6=Bobby Murray - The Future is now
TTITLE7=Paul Oscher - Straw an a Pipe
TTITLE8=Mitch Woods - Lonely, Lonely Nights
TTITLE9=Savoy Brown - Pack it up
TTITLE10=Foghat - That´s alright Mama
TTITLE11=Reverent Rusty and The Case - Work for your Dreams
EXTD=
EXTT0=
EXTT1=
EXTT2=
EXTT3=
EXTT4=
EXTT5=
EXTT6=
EXTT7=
EXTT8=
EXTT9=
EXTT10=
EXTT11=
PLAYORDER=
